<mxfile host="app.diagrams.net" modified="2023-07-26T10:56:18.941Z" agent="Mozilla/5.0 (Windows NT 10.0; Win64; x64) AppleWebKit/537.36 (KHTML, like Gecko) Chrome/115.0.0.0 Safari/537.36" etag="1zSaMXwK1LnbL8spurao" version="21.6.6" type="github">
  <diagram name="Page-1" id="aADl2jtExxr5daYm6iQi">
    <mxGraphModel dx="880" dy="446" grid="1" gridSize="10" guides="1" tooltips="1" connect="1" arrows="1" fold="1" page="1" pageScale="1" pageWidth="827" pageHeight="1169" math="0" shadow="0">
      <root>
        <mxCell id="0" />
        <mxCell id="1" parent="0" />
        <mxCell id="_iYUFisXLncz_Yr8LcwF-18" value="" style="rounded=0;whiteSpace=wrap;html=1;" vertex="1" parent="1">
          <mxGeometry width="850" height="370" as="geometry" />
        </mxCell>
        <mxCell id="_iYUFisXLncz_Yr8LcwF-19" value="systéme Divalto" style="shape=umlLifeline;perimeter=lifelinePerimeter;whiteSpace=wrap;html=1;container=0;dropTarget=0;collapsible=0;recursiveResize=0;outlineConnect=0;portConstraint=eastwest;newEdgeStyle={&quot;edgeStyle&quot;:&quot;elbowEdgeStyle&quot;,&quot;elbow&quot;:&quot;vertical&quot;,&quot;curved&quot;:0,&quot;rounded&quot;:0};" vertex="1" parent="1">
          <mxGeometry x="300" y="50" width="100" height="300" as="geometry" />
        </mxCell>
        <mxCell id="_iYUFisXLncz_Yr8LcwF-20" value="1.1: Recherche la liste des Factures&amp;nbsp;" style="html=1;align=left;spacingLeft=2;endArrow=block;rounded=0;rounded=0;" edge="1" parent="_iYUFisXLncz_Yr8LcwF-19">
          <mxGeometry x="-0.6078" y="15" relative="1" as="geometry">
            <mxPoint x="50" y="75" as="sourcePoint" />
            <mxPoint x="305" y="75" as="targetPoint" />
            <mxPoint as="offset" />
          </mxGeometry>
        </mxCell>
        <mxCell id="_iYUFisXLncz_Yr8LcwF-21" value="" style="html=1;points=[];perimeter=orthogonalPerimeter;outlineConnect=0;targetShapes=umlLifeline;portConstraint=eastwest;newEdgeStyle={&quot;edgeStyle&quot;:&quot;elbowEdgeStyle&quot;,&quot;elbow&quot;:&quot;vertical&quot;,&quot;curved&quot;:0,&quot;rounded&quot;:0};" vertex="1" parent="_iYUFisXLncz_Yr8LcwF-19">
          <mxGeometry x="45" y="60" width="10" height="220" as="geometry" />
        </mxCell>
        <mxCell id="_iYUFisXLncz_Yr8LcwF-22" value="1: Demande D&#39;imprimer Facture" style="html=1;verticalAlign=bottom;endArrow=block;edgeStyle=elbowEdgeStyle;elbow=vertical;curved=0;rounded=0;" edge="1" parent="1" target="_iYUFisXLncz_Yr8LcwF-21">
          <mxGeometry relative="1" as="geometry">
            <mxPoint x="95" y="120" as="sourcePoint" />
            <Array as="points">
              <mxPoint x="180" y="120" />
            </Array>
            <mxPoint as="offset" />
          </mxGeometry>
        </mxCell>
        <mxCell id="_iYUFisXLncz_Yr8LcwF-23" value="" style="html=1;verticalAlign=bottom;endArrow=none;dashed=1;endSize=8;elbow=vertical;rounded=0;entryX=0;entryY=0.455;entryDx=0;entryDy=0;entryPerimeter=0;exitX=1.003;exitY=0.445;exitDx=0;exitDy=0;exitPerimeter=0;endFill=0;" edge="1" parent="1">
          <mxGeometry relative="1" as="geometry">
            <mxPoint x="30" y="271.09999999999997" as="targetPoint" />
            <mxPoint x="712.04" y="270.00000000000006" as="sourcePoint" />
          </mxGeometry>
        </mxCell>
        <mxCell id="_iYUFisXLncz_Yr8LcwF-24" value="2: Envoyer la Facture" style="html=1;verticalAlign=bottom;endArrow=block;edgeStyle=elbowEdgeStyle;elbow=vertical;curved=0;rounded=0;" edge="1" parent="1" source="_iYUFisXLncz_Yr8LcwF-26" target="_iYUFisXLncz_Yr8LcwF-19">
          <mxGeometry x="-0.0008" relative="1" as="geometry">
            <mxPoint x="175" y="160" as="sourcePoint" />
            <Array as="points">
              <mxPoint x="190" y="160" />
            </Array>
            <mxPoint x="100" y="160" as="targetPoint" />
            <mxPoint as="offset" />
          </mxGeometry>
        </mxCell>
        <mxCell id="_iYUFisXLncz_Yr8LcwF-25" value="&lt;br&gt;&lt;br&gt;&lt;br&gt;&lt;br&gt;&lt;br&gt;Responsable société" style="shape=umlLifeline;perimeter=lifelinePerimeter;whiteSpace=wrap;html=1;container=1;dropTarget=0;collapsible=0;recursiveResize=0;outlineConnect=0;portConstraint=eastwest;newEdgeStyle={&quot;edgeStyle&quot;:&quot;elbowEdgeStyle&quot;,&quot;elbow&quot;:&quot;vertical&quot;,&quot;curved&quot;:0,&quot;rounded&quot;:0};participant=umlActor;align=center;" vertex="1" parent="1">
          <mxGeometry x="90" y="40" width="20" height="320" as="geometry" />
        </mxCell>
        <mxCell id="_iYUFisXLncz_Yr8LcwF-26" value="" style="html=1;points=[];perimeter=orthogonalPerimeter;outlineConnect=0;targetShapes=umlLifeline;portConstraint=eastwest;newEdgeStyle={&quot;edgeStyle&quot;:&quot;elbowEdgeStyle&quot;,&quot;elbow&quot;:&quot;vertical&quot;,&quot;curved&quot;:0,&quot;rounded&quot;:0};" vertex="1" parent="_iYUFisXLncz_Yr8LcwF-25">
          <mxGeometry x="5" y="70" width="10" height="220" as="geometry" />
        </mxCell>
        <mxCell id="_iYUFisXLncz_Yr8LcwF-27" value="BD" style="shape=umlLifeline;perimeter=lifelinePerimeter;whiteSpace=wrap;html=1;container=0;dropTarget=0;collapsible=0;recursiveResize=0;outlineConnect=0;portConstraint=eastwest;newEdgeStyle={&quot;edgeStyle&quot;:&quot;elbowEdgeStyle&quot;,&quot;elbow&quot;:&quot;vertical&quot;,&quot;curved&quot;:0,&quot;rounded&quot;:0};" vertex="1" parent="1">
          <mxGeometry x="560" y="50" width="100" height="310" as="geometry" />
        </mxCell>
        <mxCell id="_iYUFisXLncz_Yr8LcwF-28" value="" style="html=1;points=[];perimeter=orthogonalPerimeter;outlineConnect=0;targetShapes=umlLifeline;portConstraint=eastwest;newEdgeStyle={&quot;edgeStyle&quot;:&quot;elbowEdgeStyle&quot;,&quot;elbow&quot;:&quot;vertical&quot;,&quot;curved&quot;:0,&quot;rounded&quot;:0};" vertex="1" parent="_iYUFisXLncz_Yr8LcwF-27">
          <mxGeometry x="45" y="140" width="10" height="200" as="geometry" />
        </mxCell>
        <mxCell id="_iYUFisXLncz_Yr8LcwF-34" value="" style="html=1;points=[];perimeter=orthogonalPerimeter;outlineConnect=0;targetShapes=umlLifeline;portConstraint=eastwest;newEdgeStyle={&quot;edgeStyle&quot;:&quot;elbowEdgeStyle&quot;,&quot;elbow&quot;:&quot;vertical&quot;,&quot;curved&quot;:0,&quot;rounded&quot;:0};" vertex="1" parent="_iYUFisXLncz_Yr8LcwF-27">
          <mxGeometry x="45" y="70" width="10" height="40" as="geometry" />
        </mxCell>
        <mxCell id="_iYUFisXLncz_Yr8LcwF-29" value="1.1 :Afficher le formulaire&amp;nbsp;" style="html=1;verticalAlign=bottom;endArrow=open;dashed=1;endSize=8;edgeStyle=elbowEdgeStyle;elbow=vertical;curved=0;rounded=0;" edge="1" parent="1" target="_iYUFisXLncz_Yr8LcwF-26">
          <mxGeometry relative="1" as="geometry">
            <mxPoint x="350" y="139.99666666666673" as="sourcePoint" />
            <mxPoint x="110" y="139.99666666666673" as="targetPoint" />
          </mxGeometry>
        </mxCell>
        <mxCell id="_iYUFisXLncz_Yr8LcwF-30" value="alt" style="shape=umlFrame;whiteSpace=wrap;html=1;pointerEvents=0;" vertex="1" parent="1">
          <mxGeometry x="30" y="230" width="680" height="110" as="geometry" />
        </mxCell>
        <mxCell id="_iYUFisXLncz_Yr8LcwF-31" value="2.3: Enregistrement OK" style="html=1;verticalAlign=bottom;endArrow=open;dashed=1;endSize=8;edgeStyle=elbowEdgeStyle;elbow=vertical;curved=0;rounded=0;" edge="1" parent="1" target="_iYUFisXLncz_Yr8LcwF-26">
          <mxGeometry x="0.0043" relative="1" as="geometry">
            <mxPoint x="340" y="260" as="sourcePoint" />
            <mxPoint x="260" y="260" as="targetPoint" />
            <mxPoint as="offset" />
          </mxGeometry>
        </mxCell>
        <mxCell id="_iYUFisXLncz_Yr8LcwF-32" value="2.2: Mise a jour" style="html=1;verticalAlign=bottom;endArrow=block;edgeStyle=elbowEdgeStyle;elbow=horizontal;curved=0;rounded=0;" edge="1" parent="1">
          <mxGeometry width="80" relative="1" as="geometry">
            <mxPoint x="350" y="249" as="sourcePoint" />
            <mxPoint x="605" y="249" as="targetPoint" />
          </mxGeometry>
        </mxCell>
        <mxCell id="_iYUFisXLncz_Yr8LcwF-33" value="2.4: Message d&#39;erreur" style="html=1;verticalAlign=bottom;endArrow=open;edgeStyle=elbowEdgeStyle;elbow=vertical;curved=0;rounded=0;dashed=1;endFill=0;" edge="1" parent="1" source="_iYUFisXLncz_Yr8LcwF-21">
          <mxGeometry width="80" relative="1" as="geometry">
            <mxPoint x="340" y="320" as="sourcePoint" />
            <mxPoint x="105" y="320" as="targetPoint" />
          </mxGeometry>
        </mxCell>
        <mxCell id="_iYUFisXLncz_Yr8LcwF-35" value="1.1.1: Recherche" style="html=1;align=left;spacingLeft=2;endArrow=block;rounded=0;edgeStyle=orthogonalEdgeStyle;curved=0;rounded=0;" edge="1" parent="1">
          <mxGeometry relative="1" as="geometry">
            <mxPoint x="610" y="120" as="sourcePoint" />
            <Array as="points">
              <mxPoint x="650" y="120" />
              <mxPoint x="650" y="150" />
            </Array>
            <mxPoint x="615" y="150" as="targetPoint" />
          </mxGeometry>
        </mxCell>
      </root>
    </mxGraphModel>
  </diagram>
</mxfile>
